<?xml version="1.0" standalone="no"?>
<!DOCTYPE svg PUBLIC "-//W3C//DTD SVG 20010904//EN"
 "http://www.w3.org/TR/2001/REC-SVG-20010904/DTD/svg10.dtd">
<svg version="1.0" xmlns="http://www.w3.org/2000/svg"
 width="1345.000000pt" height="1345.000000pt" viewBox="0 0 1345.000000 1345.000000"
 preserveAspectRatio="xMidYMid meet">
<metadata>
Created by potrace 1.11, written by Peter Selinger 2001-2013
</metadata>
<g transform="translate(0.000000,1345.000000) scale(0.100000,-0.100000)"
fill="#000000" stroke="none">
<path d="M6685 13359 c-82 -49 -166 -97 -185 -107 -19 -11 -172 -99 -340 -196
-168 -98 -321 -187 -340 -197 -19 -11 -51 -29 -70 -40 -29 -18 -863 -501 -964
-559 -67 -38 -1500 -867 -1538 -889 -38 -22 -312 -181 -367 -212 -25 -14 -97
-56 -160 -93 -62 -36 -115 -66 -118 -66 -2 0 -16 -8 -31 -19 -15 -10 -151 -89
-302 -176 -151 -87 -300 -172 -330 -190 -30 -18 -185 -108 -345 -200 -159 -92
-315 -181 -345 -199 -30 -19 -75 -45 -100 -58 -25 -14 -84 -48 -132 -77 l-88
-52 0 -2107 0 -2107 206 -125 c113 -69 221 -134 240 -145 18 -11 352 -213 741
-450 1131 -687 1182 -718 1523 -925 608 -368 1305 -792 1325 -806 30 -22 46
-18 141 35 205 113 261 143 294 159 19 9 37 20 38 25 2 4 8 7 13 7 5 0 48 22
96 48 49 27 129 70 178 97 50 26 91 49 93 50 3 2 -99 65 -623 385 -165 100
-316 193 -335 205 -42 27 -422 260 -465 285 -30 18 -1118 685 -1425 874 -90
55 -172 106 -182 111 -10 6 -98 59 -196 119 -164 100 -225 138 -372 229 -30
19 -149 92 -265 162 -115 71 -212 130 -214 131 -5 4 -5 -44 4 1659 10 1778 7
1606 25 1616 36 21 296 171 310 179 8 5 38 22 65 38 28 15 203 117 390 226
187 109 356 208 375 219 196 111 801 463 822 478 15 10 29 19 32 19 2 0 50 27
106 60 56 33 103 60 105 60 2 0 40 23 85 50 45 28 83 50 85 50 3 0 315 181
345 200 8 5 53 31 100 58 47 27 114 66 150 87 36 21 103 60 150 87 47 27 92
53 100 58 59 38 794 460 801 460 5 0 9 5 9 10 0 6 4 10 9 10 5 0 42 19 83 43
40 24 93 55 118 69 25 14 155 90 290 168 135 79 259 151 275 160 17 10 89 52
161 94 72 42 137 76 143 76 7 0 146 -67 309 -150 164 -82 300 -150 303 -150 4
0 128 69 277 154 148 85 296 169 328 187 33 18 71 40 86 49 l28 17 -156 94
c-86 52 -173 103 -193 115 -20 11 -85 51 -145 87 -59 37 -110 67 -112 67 -2 0
-29 16 -59 35 -89 57 -688 417 -700 420 -5 2 -77 -37 -160 -86z"/>
<path d="M8790 12119 c-58 -34 -190 -110 -295 -169 -104 -59 -302 -172 -440
-250 -137 -78 -306 -174 -375 -213 -69 -38 -138 -78 -155 -88 -16 -10 -52 -30
-80 -45 -27 -15 -78 -44 -113 -65 -35 -22 -66 -39 -68 -39 -2 0 -130 -73 -286
-161 -155 -89 -298 -171 -318 -182 -36 -20 -616 -349 -990 -562 -118 -67 -298
-170 -400 -227 -102 -58 -216 -123 -255 -145 -38 -22 -90 -51 -115 -65 -25
-14 -89 -51 -142 -82 -54 -31 -100 -56 -102 -56 -2 0 -33 -17 -67 -38 -35 -21
-89 -52 -119 -69 -94 -52 -534 -302 -550 -313 -8 -6 -22 -13 -30 -17 -8 -4
-53 -29 -100 -56 -47 -27 -114 -65 -150 -85 -36 -19 -72 -41 -81 -48 -8 -8
-19 -14 -23 -14 -4 0 -69 -36 -144 -79 -76 -44 -158 -90 -182 -104 -190 -106
-246 -140 -255 -151 -7 -8 -9 -401 -8 -1137 0 -618 2 -1132 2 -1141 1 -15 38
-37 377 -224 105 -58 273 -151 347 -193 l38 -21 -5 757 c-7 1085 -8 1474 -4
1477 22 16 240 136 248 136 5 0 10 5 10 10 0 6 4 10 9 10 4 0 208 114 452 253
422 240 673 383 1334 760 160 90 306 174 325 185 19 11 116 66 215 122 99 56
194 110 210 120 17 9 116 66 220 125 105 59 335 191 513 292 349 199 374 213
442 251 25 14 57 32 72 41 15 9 132 76 260 149 128 72 244 139 258 147 97 57
273 155 281 155 5 0 9 5 9 10 0 6 4 10 10 10 5 0 76 38 159 85 l149 85 128
-73 c71 -41 149 -85 174 -99 25 -14 149 -84 275 -155 127 -72 246 -139 265
-150 19 -11 136 -77 260 -148 124 -70 281 -159 350 -197 69 -39 130 -74 135
-78 6 -4 35 -21 65 -37 44 -24 493 -277 720 -406 25 -15 127 -72 228 -129
l182 -103 0 -271 0 -272 227 -138 c125 -77 236 -143 245 -149 10 -5 68 -41
130 -80 62 -38 119 -73 128 -78 8 -4 29 -16 45 -27 17 -11 42 -26 58 -35 l27
-16 -2 777 -3 777 -160 89 c-88 50 -189 106 -225 125 -35 19 -100 55 -142 79
-43 25 -97 55 -121 68 -23 13 -67 37 -97 54 -30 16 -167 93 -305 169 -137 77
-277 155 -310 173 -33 18 -114 63 -180 100 -66 37 -151 83 -188 104 -37 20
-84 46 -105 58 -65 37 -275 154 -327 183 -27 15 -108 60 -180 100 -71 39 -157
87 -190 105 -33 18 -94 52 -135 75 -41 24 -100 56 -130 72 -65 36 -117 65
-265 148 -60 34 -141 79 -178 99 -37 20 -82 45 -100 55 -137 76 -274 151 -278
150 -2 0 -51 -27 -109 -60z"/>
<path d="M8110 9864 c-234 -119 -426 -217 -427 -218 -2 -1 208 -132 465 -290
257 -158 479 -296 494 -307 15 -10 29 -19 32 -19 2 0 46 -27 97 -59 52 -33
128 -80 169 -105 41 -25 110 -67 152 -93 232 -143 863 -533 1133 -700 170
-106 328 -203 350 -216 22 -13 87 -53 145 -88 58 -36 195 -121 305 -188 110
-68 216 -134 235 -146 46 -30 285 -177 307 -190 10 -5 34 -20 53 -32 l35 -22
-2 -1598 c-1 -879 -2 -1621 -3 -1649 l0 -52 -115 -68 c-63 -38 -357 -215 -652
-394 -296 -179 -631 -381 -745 -450 -114 -69 -437 -264 -719 -435 -282 -170
-524 -317 -540 -326 -15 -8 -39 -23 -52 -32 -14 -9 -41 -25 -59 -36 -18 -10
-184 -110 -368 -221 -184 -112 -398 -241 -475 -287 -77 -47 -249 -151 -383
-231 -133 -81 -378 -229 -545 -330 l-303 -182 -164 96 c-91 52 -172 100 -180
105 -117 70 -205 119 -214 119 -13 0 -18 -3 -206 -110 -230 -131 -443 -252
-473 -268 -16 -8 -27 -15 -25 -17 2 -1 93 -60 203 -130 292 -187 332 -213 420
-270 217 -141 547 -352 604 -387 l64 -40 26 19 c20 15 314 190 665 398 19 11
102 61 185 110 83 50 159 95 169 100 63 37 235 139 330 197 63 37 116 68 118
68 3 0 17 9 32 19 15 10 284 171 597 356 314 186 602 356 640 380 39 23 205
122 370 220 165 98 345 205 400 238 55 33 120 71 145 85 25 13 52 31 61 38 8
8 19 14 23 14 3 0 23 11 44 24 20 13 150 90 287 171 138 81 277 164 310 184
76 45 55 33 349 208 138 81 258 153 268 158 10 6 183 109 386 229 l368 220 1
175 c6 1002 15 2829 17 3355 l1 659 -230 143 c-126 79 -241 149 -255 157 -22
12 -291 178 -770 476 -85 53 -163 101 -173 106 -10 6 -80 49 -155 96 -105 66
-1755 1086 -1846 1142 -34 21 -231 141 -252 154 -10 6 -81 50 -156 97 -76 47
-139 86 -140 86 -2 0 -194 -98 -428 -216z"/>
<path d="M9716 6623 c6 -1353 6 -1505 2 -1508 -3 -3 -500 -286 -868 -495 -129
-73 -250 -141 -267 -152 -18 -10 -50 -28 -70 -39 -21 -12 -67 -38 -103 -59
-36 -20 -85 -49 -110 -62 -76 -42 -776 -440 -1220 -693 -80 -46 -167 -95 -195
-111 -27 -15 -108 -61 -180 -102 -71 -41 -150 -86 -175 -100 -25 -14 -74 -42
-110 -62 -36 -20 -87 -50 -115 -65 -27 -15 -95 -53 -150 -85 -95 -55 -223
-128 -900 -512 -332 -189 -334 -190 -515 -292 -74 -42 -142 -80 -150 -86 -55
-38 -71 -39 -122 -9 -27 16 -51 29 -54 29 -3 0 -18 8 -32 18 -15 11 -52 32
-82 49 -100 55 -155 86 -165 93 -5 4 -37 22 -70 40 -82 45 -194 107 -230 129
-16 10 -55 31 -85 48 -49 27 -387 218 -465 263 -16 9 -190 107 -385 217 -195
110 -395 224 -444 252 -49 28 -90 51 -92 51 -1 0 -57 32 -124 70 -67 39 -124
70 -126 70 -2 0 -21 11 -42 23 -20 13 -68 41 -107 62 -38 21 -77 44 -86 51 -8
8 -19 14 -23 14 -4 0 -36 17 -71 37 l-65 37 0 286 0 285 -390 238 c-214 130
-392 237 -395 237 -3 0 -5 -339 -5 -752 l0 -753 68 -36 c37 -20 173 -96 302
-169 129 -73 264 -148 299 -167 35 -19 78 -44 95 -54 17 -10 38 -22 46 -26 13
-6 125 -68 270 -150 19 -11 231 -129 470 -263 239 -133 464 -259 500 -280 36
-20 88 -50 115 -65 169 -94 345 -192 600 -335 160 -90 313 -175 340 -190 28
-15 102 -56 165 -92 63 -36 135 -76 160 -90 25 -14 71 -39 102 -57 l56 -32
109 62 c165 94 164 93 228 129 33 18 195 110 360 203 165 94 316 179 335 190
125 69 371 208 400 226 19 11 41 24 48 27 8 4 77 43 155 87 78 44 178 100 222
125 199 111 631 355 640 362 6 4 42 24 80 45 39 21 120 66 180 100 61 35 126
71 145 82 19 11 125 71 235 133 110 62 220 124 245 138 25 14 164 93 310 175
146 82 290 163 320 180 30 17 72 41 92 54 21 13 40 23 42 23 2 0 44 23 93 51
48 28 113 65 143 81 30 17 120 68 200 113 233 132 370 209 445 250 39 21 87
49 107 62 21 13 40 23 42 23 3 0 26 13 53 29 41 24 332 189 483 273 25 14 85
48 134 77 49 28 92 51 95 51 3 0 6 523 6 1161 l0 1161 -80 42 c-160 85 -314
166 -490 260 -99 53 -180 96 -181 96 -1 0 0 -327 2 -727z"/>
</g>
</svg>
