<?xml version="1.0" standalone="no"?>
<!DOCTYPE svg PUBLIC "-//W3C//DTD SVG 20010904//EN"
 "http://www.w3.org/TR/2001/REC-SVG-20010904/DTD/svg10.dtd">
<svg version="1.0" xmlns="http://www.w3.org/2000/svg"
 width="700.000000pt" height="700.000000pt" viewBox="0 0 700.000000 700.000000"
 preserveAspectRatio="xMidYMid meet">
<metadata>
Created by potrace 1.14, written by Peter Selinger 2001-2017
</metadata>
<g transform="translate(0.000000,700.000000) scale(0.100000,-0.100000)"
fill="#000000" stroke="none">
<path d="M3395 6144 c-209 -120 -197 -113 -335 -194 -69 -40 -141 -82 -160
-92 -19 -11 -93 -54 -165 -96 -71 -41 -143 -83 -160 -92 -16 -9 -75 -43 -130
-75 -55 -32 -125 -72 -155 -90 -30 -17 -129 -74 -220 -127 -91 -53 -181 -105
-200 -115 -73 -42 -266 -153 -280 -162 -8 -6 -80 -47 -159 -93 -152 -87 -234
-135 -267 -155 -18 -11 -19 -33 -19 -867 l0 -855 538 -328 c296 -180 555 -338
575 -349 21 -12 80 -47 132 -79 330 -202 402 -245 411 -245 5 0 40 16 77 37
130 71 247 135 250 138 1 1 -82 54 -185 117 -104 63 -237 146 -298 183 -60 37
-126 77 -145 88 -19 10 -53 32 -75 47 -22 15 -45 29 -50 31 -12 5 -362 218
-472 288 -40 25 -153 95 -252 155 l-179 108 3 592 c2 325 4 623 4 663 l1 71
246 144 c136 78 268 155 293 169 25 14 118 68 206 119 342 198 522 303 575
334 30 18 174 102 320 186 146 84 277 161 292 171 15 11 30 19 32 19 3 0 28
14 54 30 27 17 56 30 65 30 8 0 68 -26 132 -59 l117 -58 144 81 c108 61 140
84 131 92 -13 12 -531 324 -538 324 -2 0 -71 -39 -154 -86z"/>
<path d="M4170 5596 c-108 -62 -220 -126 -250 -143 -30 -16 -71 -39 -90 -50
-49 -29 -618 -352 -660 -376 -19 -10 -64 -36 -100 -57 -36 -20 -85 -48 -110
-62 -25 -14 -125 -71 -222 -126 -98 -56 -202 -115 -230 -131 -29 -16 -163 -92
-298 -169 l-245 -139 -1 -464 c0 -434 1 -465 17 -477 10 -7 49 -29 86 -49 37
-20 97 -54 133 -74 36 -20 67 -35 69 -33 3 3 4 206 3 452 l-3 447 457 260
c252 143 483 274 513 291 31 17 236 133 456 259 220 125 462 263 538 306 76
44 140 79 143 79 2 0 70 -38 151 -84 82 -46 169 -95 194 -110 26 -14 122 -68
214 -121 92 -52 169 -95 170 -95 1 0 91 -51 201 -114 l199 -113 0 -106 c0 -58
5 -110 10 -116 11 -11 334 -210 336 -208 1 1 2 143 3 315 l1 313 -200 111
c-110 61 -355 197 -545 303 -190 106 -372 207 -405 225 -33 18 -115 64 -183
101 -67 38 -130 69 -140 68 -9 0 -105 -51 -212 -113z"/>
<path d="M4057 4773 l-168 -86 33 -21 c18 -11 35 -24 36 -28 2 -5 8 -8 13 -8
5 0 55 -29 112 -64 153 -95 604 -374 1037 -640 l385 -236 -1 -664 c-1 -364 -4
-668 -8 -674 -4 -6 -33 -27 -64 -45 -31 -19 -264 -159 -517 -312 -865 -522
-1140 -688 -1278 -772 -76 -45 -143 -83 -149 -83 -6 0 -57 27 -114 60 -56 33
-107 60 -113 60 -6 0 -72 -34 -147 -76 -109 -62 -133 -79 -122 -89 11 -10 458
-298 495 -319 7 -4 107 50 225 120 279 167 464 277 486 289 9 6 33 20 52 31
38 23 554 329 607 360 127 74 252 149 273 163 14 9 36 22 50 29 14 8 169 100
345 205 l320 192 2 190 c7 912 7 1505 -2 1514 -9 8 -581 363 -693 430 -24 14
-55 33 -67 41 -46 29 -216 135 -233 145 -10 6 -151 92 -313 193 -163 100 -300
182 -305 181 -5 0 -85 -39 -177 -86z"/>
<path d="M4719 3743 c-1 -5 -2 -208 -3 -453 l-1 -444 -80 -47 c-102 -59 -1280
-726 -1320 -748 -16 -9 -31 -19 -33 -23 -2 -5 -7 -8 -12 -8 -5 0 -46 -22 -92
-48 -46 -26 -90 -51 -98 -55 -8 -4 -31 -17 -50 -28 -19 -12 -122 -71 -229
-131 l-193 -111 -32 16 c-42 22 -134 73 -299 168 -76 43 -140 79 -143 79 -2 0
-22 11 -43 24 -21 13 -89 53 -152 88 -63 36 -193 109 -289 163 -96 54 -177
102 -180 106 -3 5 -5 56 -5 114 1 58 -1 109 -4 114 -7 9 -301 191 -311 191 -3
0 -6 -136 -5 -301 l0 -302 35 -22 c19 -12 159 -91 310 -175 151 -84 291 -162
310 -173 19 -11 166 -93 325 -182 160 -89 331 -185 381 -213 51 -29 94 -52 97
-52 3 0 124 67 269 149 635 359 1126 636 1168 659 25 14 74 42 110 62 36 21
81 47 100 57 148 83 368 206 380 214 30 18 192 109 194 109 2 0 45 24 97 54
l94 54 0 473 0 474 -145 77 c-158 85 -149 81 -151 71z"/>
</g>
</svg>
