<?xml version="1.0" encoding="utf-8"?>
<!-- Generator: Adobe Illustrator 16.0.0, SVG Export Plug-In . SVG Version: 6.00 Build 0)  -->
<!DOCTYPE svg PUBLIC "-//W3C//DTD SVG 1.1//EN" "http://www.w3.org/Graphics/SVG/1.1/DTD/svg11.dtd">
<svg version="1.1" xmlns="http://www.w3.org/2000/svg" viewBox="0 0 1197.44 1256.95" enable-background="new 0 0 220 75" xml:space="preserve">
<path fill="none" stroke="#3099bb" stroke-width="15" stroke-linecap="round" stroke-linejoin="round" d="M718.82,130.19l117.66,70.9-61.85,35.19-52.79-26.65-441,256-1.5,280.59L630.82,961.38l-70.4,38.22L209.94,786.9V424.35ZM864.72,420l-74,37.49,342.1,211-.17,283.61L706,1209.81,658,1181.73,597.26,1216l110.62,71.11,497.43-295.37,2.07-360.09Z" transform="translate(-109.94 -80.19)"/>
<path fill="none" stroke="#3099bb" stroke-width="10" stroke-linecap="round" stroke-linejoin="round" d="M383.49,530.36,896.07,239.28l311.31,173V545.89l-74-45.19V454.13L893.85,318.57,448.09,572.22l1.1,191.83-65.7-36.31Zm-173.55,474L518.72,1177l511.79-288.58V689.21L965.74,654.8l.87,192.29L519,1101.25,277.85,965.06V915.9l-67.91-41.34Z" transform="translate(-109.94 -80.19)"/>
</svg>