<?xml version="1.0" encoding="utf-8"?>
<!-- Generator: Adobe Illustrator 22.1.0, SVG Export Plug-In . SVG Version: 6.00 Build 0)  -->
<svg version="1.1" id="Ebene_1" xmlns="http://www.w3.org/2000/svg" xmlns:xlink="http://www.w3.org/1999/xlink" x="0px" y="0px"
	 viewBox="0 0 1133.9 1133.9" style="enable-background:new 0 0 1133.9 1133.9;" xml:space="preserve">
<style type="text/css">
	.st0{fill:#1A1A1A;}
	.st1{fill:none;stroke:#3099BB;stroke-width:20;stroke-linecap:round;stroke-linejoin:round;}
</style>
<path class="st0" d="M1071.1,1123.5H62.7c-28.9,0-52.3-23.4-52.3-52.3V62.7c0-28.9,23.4-52.3,52.3-52.3h1008.4
	c28.9,0,52.3,23.4,52.3,52.3v1008.4C1123.5,1100,1100,1123.5,1071.1,1123.5z"/>
<title>logo3</title>
<path class="st1" d="M576,49.2l105.3,63.5L626,144.2l-47.2-23.9L184,349.4l-1.3,251.1l314.6,192.6l-63,34.2L120.6,637V312.5
	L576,49.2z M706.6,308.6l-66.2,33.6L946.6,531l-0.2,253.8l-381.9,230.7l-43-25.1l-54.4,30.7l99,63.6l445.2-264.4l1.9-322.3
	L706.6,308.6z"/>
<path class="st1" d="M275.9,398.8l458.8-260.5l278.6,154.8v119.6l-66.2-40.4v-41.7L732.7,209.2l-399,227l1,171.7l-58.8-32.5V398.8z
	 M120.6,823l276.4,154.5L855,719.2V540.9l-58-30.8l0.8,172.1L397.2,909.7L181.4,787.8v-44l-60.8-37V823z"/>
</svg>
