<svg id="Ebene_1" data-name="Ebene 1" xmlns="http://www.w3.org/2000/svg" viewBox="0 0 1113.06 1113.06"><defs><style>.cls-1{fill:#1a1a1a;}.cls-2{fill:none;stroke:#3099bb;stroke-linecap:round;stroke-linejoin:round;stroke-width:20px;}</style></defs><title>logo6</title><rect class="cls-1" width="1113.06" height="1113.06" rx="52.35" ry="52.35"/><path class="cls-2" d="M576,49.2l105.31,63.46L626,144.16,578.73,120.3,184,349.42l-1.34,251.11L497.26,793.12l-63,34.21L120.57,637V312.48ZM706.6,308.59l-66.23,33.55L946.55,531l-.15,253.83L564.55,1015.47l-43-25.13L467.23,1021l99,63.64,445.2-264.35L1013.29,498Z" transform="translate(-10.4 -10.4)"/><path class="cls-2" d="M275.9,398.76,734.66,138.24l278.63,154.84V412.66l-66.23-40.44V330.54L732.68,209.21l-399,227,1,171.69-58.8-32.5ZM120.57,823,396.93,977.51,855,719.23V540.92l-58-30.78.78,172.1L397.18,909.71,181.35,787.82v-44l-60.78-37Z" transform="translate(-10.4 -10.4)"/></svg>