<svg id="Ebene_1" data-name="Ebene 1" xmlns="http://www.w3.org/2000/svg" viewBox="0 0 1017.44 1176.92"><defs><style>.cls-1{fill:none;stroke:#3099bb;stroke-linecap:round;stroke-linejoin:round;stroke-width:20px;}</style></defs><title>logo4</title><path class="cls-1" d="M608.88,50l117.66,70.9-61.85,35.19L611.9,129.44l-441,256L169.4,666,520.88,881.19l-70.4,38.22L100,706.71V344.16Zm145.9,289.81-74,37.49,342.1,211-.17,283.61L596.06,1129.62l-48-28.08-60.74,34.27,110.62,71.11,497.43-295.37,2.07-360.09Z" transform="translate(-90 -40)"/><path class="cls-1" d="M273.55,450.17,786.13,159.09l311.31,173V465.7l-74-45.19V373.94L783.91,238.38,338.15,492l1.1,191.83-65.7-36.31ZM100,924.17l308.78,172.64L920.57,808.23V609L855.8,574.61l.87,192.29L409.06,1021.06,167.91,884.87V835.71L100,794.37Z" transform="translate(-90 -40)"/></svg>