<svg id="Ebene_1" data-name="Ebene 1" xmlns="http://www.w3.org/2000/svg" viewBox="0 0 6103.45 1644.25"><defs><style>.cls-1{font-size:1296px;fill:#1a1a1a;font-family:NexaBold, Nexa Bold;letter-spacing:0.05em;}.cls-2{letter-spacing:0em;}.cls-3{letter-spacing:0.03em;}.cls-4{letter-spacing:0.04em;}.cls-5{fill:#1b1b1b;}.cls-6{fill:#2f98bb;}</style></defs><title>zationWideLogo</title><text class="cls-1" transform="translate(1957.34 1245.08) scale(1.01 1)">Z<tspan class="cls-2" x="819.07" y="0">a</tspan><tspan class="cls-3" x="1616.1" y="0">t</tspan><tspan class="cls-4" x="2165.59" y="0">i</tspan><tspan class="cls-3" x="2512.89" y="0">on</tspan></text><path class="cls-5" d="M2124.43,2015.15H653a78.74,78.74,0,0,1-78.77-78.77V464.91A78.74,78.74,0,0,1,653,386.14H2124.43a78.74,78.74,0,0,1,78.77,78.77V1936.38C2203.35,1979.76,2168,2015.15,2124.43,2015.15Z" transform="translate(-574.19 -386.14)"/><path class="cls-6" d="M1400.14,548.49l132.69,80-69.73,39.61-59.5-30L906.44,926.53l-1.66,316.28L1301,1485.45l-79.37,43.07L826.61,1288.75V880Zm164.47,326.68-83.29,42.32,385.57,237.82-.15,319.75-480.91,290.38-54.22-31.63-68.37,38.7,124.7,80.13,560.73-333,2.26-405.9Z" transform="translate(-574.19 -386.14)"/><path class="cls-6" d="M1022.26,999.58,1600,671.39l350.93,195.05v150.61l-83.44-50.91V913.58l-270-152.72L1095,1046.72l1.21,216.28-74.1-41V999.58ZM826.61,1534l348.07,194.59,577-325.33V1178.65l-73.05-38.85.91,216.73L1175,1643.14,903.12,1489.51v-55.42l-76.51-46.54Z" transform="translate(-574.19 -386.14)"/></svg>